<svg xmlns="http://www.w3.org/2000/svg" xmlns:xlink="http://www.w3.org/1999/xlink" xmlns:s="https://github.com/nturley/netlistsvg" width="388" height="664">
  <style>svg {
    stroke:#000;
    fill:none;
  }
  text {
    fill:#000;
    stroke:none;
    font-size:10px;
    font-weight: bold;
    font-family: "Courier New", monospace;
  }
  .nodelabel {
    text-anchor: middle;
  }
  .inputPortLabel {
    text-anchor: end;
  }
  .splitjoinBody {
    fill:#000;
  }</style>
  <g s:type="mux" transform="translate(225,45)" s:width="20" s:height="40" id="cell_$abc$87$auto$blifparse.cc:397:parse_blif$88">
    <s:alias val="$pmux"/>
    <s:alias val="$mux"/>
    <s:alias val="$_MUX_"/>
    <path d="M0,0 L20,10 L20,30 L0,40 Z" class="cell_$abc$87$auto$blifparse.cc:397:parse_blif$88"/>
    <g s:x="0" s:y="10" s:pid="A"/>
    <g s:x="0" s:y="30" s:pid="B"/>
    <g s:x="10" s:y="35" s:pid="S"/>
    <g s:x="20" s:y="20" s:pid="Y"/>
  </g>
  <g s:type="mux" transform="translate(225,110)" s:width="20" s:height="40" id="cell_$abc$87$auto$blifparse.cc:397:parse_blif$89">
    <s:alias val="$pmux"/>
    <s:alias val="$mux"/>
    <s:alias val="$_MUX_"/>
    <path d="M0,0 L20,10 L20,30 L0,40 Z" class="cell_$abc$87$auto$blifparse.cc:397:parse_blif$89"/>
    <g s:x="0" s:y="10" s:pid="A"/>
    <g s:x="0" s:y="30" s:pid="B"/>
    <g s:x="10" s:y="35" s:pid="S"/>
    <g s:x="20" s:y="20" s:pid="Y"/>
  </g>
  <g s:type="mux" transform="translate(225,302)" s:width="20" s:height="40" id="cell_$abc$87$auto$blifparse.cc:397:parse_blif$90">
    <s:alias val="$pmux"/>
    <s:alias val="$mux"/>
    <s:alias val="$_MUX_"/>
    <path d="M0,0 L20,10 L20,30 L0,40 Z" class="cell_$abc$87$auto$blifparse.cc:397:parse_blif$90"/>
    <g s:x="0" s:y="10" s:pid="A"/>
    <g s:x="0" s:y="30" s:pid="B"/>
    <g s:x="10" s:y="35" s:pid="S"/>
    <g s:x="20" s:y="20" s:pid="Y"/>
  </g>
  <g s:type="mux" transform="translate(225,362)" s:width="20" s:height="40" id="cell_$abc$87$auto$blifparse.cc:397:parse_blif$91">
    <s:alias val="$pmux"/>
    <s:alias val="$mux"/>
    <s:alias val="$_MUX_"/>
    <path d="M0,0 L20,10 L20,30 L0,40 Z" class="cell_$abc$87$auto$blifparse.cc:397:parse_blif$91"/>
    <g s:x="0" s:y="10" s:pid="A"/>
    <g s:x="0" s:y="30" s:pid="B"/>
    <g s:x="10" s:y="35" s:pid="S"/>
    <g s:x="20" s:y="20" s:pid="Y"/>
  </g>
  <g s:type="mux" transform="translate(225,422)" s:width="20" s:height="40" id="cell_$abc$87$auto$blifparse.cc:397:parse_blif$92">
    <s:alias val="$pmux"/>
    <s:alias val="$mux"/>
    <s:alias val="$_MUX_"/>
    <path d="M0,0 L20,10 L20,30 L0,40 Z" class="cell_$abc$87$auto$blifparse.cc:397:parse_blif$92"/>
    <g s:x="0" s:y="10" s:pid="A"/>
    <g s:x="0" s:y="30" s:pid="B"/>
    <g s:x="10" s:y="35" s:pid="S"/>
    <g s:x="20" s:y="20" s:pid="Y"/>
  </g>
  <g s:type="mux" transform="translate(225,482)" s:width="20" s:height="40" id="cell_$abc$87$auto$blifparse.cc:397:parse_blif$93">
    <s:alias val="$pmux"/>
    <s:alias val="$mux"/>
    <s:alias val="$_MUX_"/>
    <path d="M0,0 L20,10 L20,30 L0,40 Z" class="cell_$abc$87$auto$blifparse.cc:397:parse_blif$93"/>
    <g s:x="0" s:y="10" s:pid="A"/>
    <g s:x="0" s:y="30" s:pid="B"/>
    <g s:x="10" s:y="35" s:pid="S"/>
    <g s:x="20" s:y="20" s:pid="Y"/>
  </g>
  <g s:type="mux" transform="translate(225,542)" s:width="20" s:height="40" id="cell_$abc$87$auto$blifparse.cc:397:parse_blif$94">
    <s:alias val="$pmux"/>
    <s:alias val="$mux"/>
    <s:alias val="$_MUX_"/>
    <path d="M0,0 L20,10 L20,30 L0,40 Z" class="cell_$abc$87$auto$blifparse.cc:397:parse_blif$94"/>
    <g s:x="0" s:y="10" s:pid="A"/>
    <g s:x="0" s:y="30" s:pid="B"/>
    <g s:x="10" s:y="35" s:pid="S"/>
    <g s:x="20" s:y="20" s:pid="Y"/>
  </g>
  <g s:type="mux" transform="translate(225,602)" s:width="20" s:height="40" id="cell_$abc$87$auto$blifparse.cc:397:parse_blif$95">
    <s:alias val="$pmux"/>
    <s:alias val="$mux"/>
    <s:alias val="$_MUX_"/>
    <path d="M0,0 L20,10 L20,30 L0,40 Z" class="cell_$abc$87$auto$blifparse.cc:397:parse_blif$95"/>
    <g s:x="0" s:y="10" s:pid="A"/>
    <g s:x="0" s:y="30" s:pid="B"/>
    <g s:x="10" s:y="35" s:pid="S"/>
    <g s:x="20" s:y="20" s:pid="Y"/>
  </g>
  <g s:type="inputExt" transform="translate(12,35)" s:width="30" s:height="20" id="cell_sel">
    <text x="15" y="-4" class="nodelabel cell_sel" s:attribute="ref">sel</text>
    <s:alias val="$_inputExt_"/>
    <path d="M0,0 L0,20 L15,20 L30,10 L15,0 Z" class="cell_sel"/>
    <g s:x="28" s:y="10" s:pid="Y"/>
  </g>
  <g s:type="inputExt" transform="translate(12,100)" s:width="30" s:height="20" id="cell_data_a">
    <text x="15" y="-4" class="nodelabel cell_data_a" s:attribute="ref">data_a</text>
    <s:alias val="$_inputExt_"/>
    <path d="M0,0 L0,20 L15,20 L30,10 L15,0 Z" class="cell_data_a"/>
    <g s:x="28" s:y="10" s:pid="Y"/>
  </g>
  <g s:type="inputExt" transform="translate(12,292)" s:width="30" s:height="20" id="cell_data_b">
    <text x="15" y="-4" class="nodelabel cell_data_b" s:attribute="ref">data_b</text>
    <s:alias val="$_inputExt_"/>
    <path d="M0,0 L0,20 L15,20 L30,10 L15,0 Z" class="cell_data_b"/>
    <g s:x="28" s:y="10" s:pid="Y"/>
  </g>
  <g s:type="outputExt" transform="translate(328,322)" s:width="30" s:height="20" id="cell_data_out">
    <text x="15" y="-4" class="nodelabel cell_data_out" s:attribute="ref">data_out</text>
    <s:alias val="$_outputExt_"/>
    <path d="M30,0 L30,20 L15,20 L0,10 L15,0 Z" class="cell_data_out"/>
    <g s:x="0" s:y="10" s:pid="A"/>
  </g>
  <g s:type="join" transform="translate(285,311.5)" s:width="4" s:height="40" id="cell_$join$,23,24,25,26,27,28,29,30,">
    <rect width="5" height="160" class="splitjoinBody" s:generic="body"/>
    <s:alias val="$_join_"/>
    <g s:x="5" s:y="20" s:pid="out"/>
    <g transform="translate(0,10)" s:x="0" s:y="10" s:pid="in0">
      <text x="-3" y="-4" class="inputPortLabel">0</text>
    </g>
    <g transform="translate(0,30)" s:x="0" s:y="10" s:pid="in0">
      <text x="-3" y="-4" class="inputPortLabel">1</text>
    </g>
    <g transform="translate(0,50)" s:x="0" s:y="10" s:pid="in0">
      <text x="-3" y="-4" class="inputPortLabel">2</text>
    </g>
    <g transform="translate(0,70)" s:x="0" s:y="10" s:pid="in0">
      <text x="-3" y="-4" class="inputPortLabel">3</text>
    </g>
    <g transform="translate(0,90)" s:x="0" s:y="10" s:pid="in0">
      <text x="-3" y="-4" class="inputPortLabel">4</text>
    </g>
    <g transform="translate(0,110)" s:x="0" s:y="10" s:pid="in0">
      <text x="-3" y="-4" class="inputPortLabel">5</text>
    </g>
    <g transform="translate(0,130)" s:x="0" s:y="10" s:pid="in0">
      <text x="-3" y="-4" class="inputPortLabel">6</text>
    </g>
    <g transform="translate(0,150)" s:x="0" s:y="10" s:pid="in0">
      <text x="-3" y="-4" class="inputPortLabel">7</text>
    </g>
  </g>
  <g s:type="split" transform="translate(83,89.5)" s:width="5" s:height="40" id="cell_$split$,7,8,9,10,11,12,13,14,">
    <rect width="5" height="160" class="splitjoinBody" s:generic="body"/>
    <s:alias val="$_split_"/>
    <g s:x="0" s:y="20" s:pid="in"/>
    <g transform="translate(4,10)" s:x="4" s:y="10" s:pid="out0">
      <text x="5" y="-4">0</text>
    </g>
    <g transform="translate(4,30)" s:x="4" s:y="10" s:pid="out0">
      <text x="5" y="-4">1</text>
    </g>
    <g transform="translate(4,50)" s:x="4" s:y="10" s:pid="out0">
      <text x="5" y="-4">2</text>
    </g>
    <g transform="translate(4,70)" s:x="4" s:y="10" s:pid="out0">
      <text x="5" y="-4">3</text>
    </g>
    <g transform="translate(4,90)" s:x="4" s:y="10" s:pid="out0">
      <text x="5" y="-4">4</text>
    </g>
    <g transform="translate(4,110)" s:x="4" s:y="10" s:pid="out0">
      <text x="5" y="-4">5</text>
    </g>
    <g transform="translate(4,130)" s:x="4" s:y="10" s:pid="out0">
      <text x="5" y="-4">6</text>
    </g>
    <g transform="translate(4,150)" s:x="4" s:y="10" s:pid="out0">
      <text x="5" y="-4">7</text>
    </g>
  </g>
  <g s:type="split" transform="translate(83,281.5)" s:width="5" s:height="40" id="cell_$split$,15,16,17,18,19,20,21,22,">
    <rect width="5" height="160" class="splitjoinBody" s:generic="body"/>
    <s:alias val="$_split_"/>
    <g s:x="0" s:y="20" s:pid="in"/>
    <g transform="translate(4,10)" s:x="4" s:y="10" s:pid="out0">
      <text x="5" y="-4">0</text>
    </g>
    <g transform="translate(4,30)" s:x="4" s:y="10" s:pid="out0">
      <text x="5" y="-4">1</text>
    </g>
    <g transform="translate(4,50)" s:x="4" s:y="10" s:pid="out0">
      <text x="5" y="-4">2</text>
    </g>
    <g transform="translate(4,70)" s:x="4" s:y="10" s:pid="out0">
      <text x="5" y="-4">3</text>
    </g>
    <g transform="translate(4,90)" s:x="4" s:y="10" s:pid="out0">
      <text x="5" y="-4">4</text>
    </g>
    <g transform="translate(4,110)" s:x="4" s:y="10" s:pid="out0">
      <text x="5" y="-4">5</text>
    </g>
    <g transform="translate(4,130)" s:x="4" s:y="10" s:pid="out0">
      <text x="5" y="-4">6</text>
    </g>
    <g transform="translate(4,150)" s:x="4" s:y="10" s:pid="out0">
      <text x="5" y="-4">7</text>
    </g>
  </g>
  <g s:type="split" transform="translate(83,12)" s:width="5" s:height="40" id="cell_$split$,2,3,4,5,6,">
    <rect width="5" height="20" class="splitjoinBody" s:generic="body"/>
    <s:alias val="$_split_"/>
    <g s:x="0" s:y="20" s:pid="in"/>
    <g transform="translate(4,10)" s:x="4" s:y="10" s:pid="out0">
      <text x="5" y="-4">0</text>
    </g>
  </g>
  <line x1="87.5" x2="87.5" y1="99.5" y2="55" class="net_7"/>
  <line x1="87.5" x2="225" y1="55" y2="55" class="net_7"/>
  <line x1="87.5" x2="87.5" y1="291.5" y2="269.5" class="net_15"/>
  <line x1="87.5" x2="115" y1="269.5" y2="269.5" class="net_15"/>
  <line x1="115" x2="115" y1="269.5" y2="75" class="net_15"/>
  <line x1="115" x2="225" y1="75" y2="75" class="net_15"/>
  <line x1="88" x2="215" y1="22.5" y2="22.5" class="net_2"/>
  <line x1="215" x2="215" y1="22.5" y2="95" class="net_2"/>
  <line x1="215" x2="235" y1="95" y2="95" class="net_2"/>
  <circle cx="215" cy="95" r="2" style="fill:#000" class="net_2"/>
  <line x1="235" x2="235" y1="95" y2="80" class="net_2"/>
  <line x1="88" x2="215" y1="22.5" y2="22.5" class="net_2"/>
  <line x1="215" x2="215" y1="22.5" y2="160" class="net_2"/>
  <line x1="215" x2="235" y1="160" y2="160" class="net_2"/>
  <circle cx="215" cy="160" r="2" style="fill:#000" class="net_2"/>
  <line x1="235" x2="235" y1="160" y2="145" class="net_2"/>
  <line x1="88" x2="215" y1="22.5" y2="22.5" class="net_2"/>
  <line x1="215" x2="215" y1="22.5" y2="352" class="net_2"/>
  <line x1="215" x2="235" y1="352" y2="352" class="net_2"/>
  <circle cx="215" cy="352" r="2" style="fill:#000" class="net_2"/>
  <line x1="235" x2="235" y1="352" y2="337" class="net_2"/>
  <line x1="88" x2="215" y1="22.5" y2="22.5" class="net_2"/>
  <line x1="215" x2="215" y1="22.5" y2="412" class="net_2"/>
  <line x1="215" x2="235" y1="412" y2="412" class="net_2"/>
  <circle cx="215" cy="412" r="2" style="fill:#000" class="net_2"/>
  <line x1="235" x2="235" y1="412" y2="397" class="net_2"/>
  <line x1="88" x2="215" y1="22.5" y2="22.5" class="net_2"/>
  <line x1="215" x2="215" y1="22.5" y2="472" class="net_2"/>
  <line x1="215" x2="235" y1="472" y2="472" class="net_2"/>
  <circle cx="215" cy="472" r="2" style="fill:#000" class="net_2"/>
  <line x1="235" x2="235" y1="472" y2="457" class="net_2"/>
  <line x1="88" x2="215" y1="22.5" y2="22.5" class="net_2"/>
  <line x1="215" x2="215" y1="22.5" y2="532" class="net_2"/>
  <line x1="215" x2="235" y1="532" y2="532" class="net_2"/>
  <circle cx="215" cy="532" r="2" style="fill:#000" class="net_2"/>
  <line x1="235" x2="235" y1="532" y2="517" class="net_2"/>
  <line x1="88" x2="215" y1="22.5" y2="22.5" class="net_2"/>
  <line x1="215" x2="215" y1="22.5" y2="592" class="net_2"/>
  <line x1="215" x2="235" y1="592" y2="592" class="net_2"/>
  <circle cx="215" cy="592" r="2" style="fill:#000" class="net_2"/>
  <line x1="235" x2="235" y1="592" y2="577" class="net_2"/>
  <line x1="88" x2="215" y1="22.5" y2="22.5" class="net_2"/>
  <line x1="215" x2="215" y1="22.5" y2="652" class="net_2"/>
  <line x1="215" x2="235" y1="652" y2="652" class="net_2"/>
  <line x1="235" x2="235" y1="652" y2="637" class="net_2"/>
  <line x1="88" x2="225" y1="120" y2="120" class="net_8"/>
  <line x1="88" x2="195" y1="312" y2="312" class="net_16"/>
  <line x1="195" x2="195" y1="312" y2="140" class="net_16"/>
  <line x1="195" x2="225" y1="140" y2="140" class="net_16"/>
  <line x1="88" x2="205" y1="140" y2="140" class="net_9"/>
  <line x1="205" x2="205" y1="140" y2="312" class="net_9"/>
  <line x1="205" x2="225" y1="312" y2="312" class="net_9"/>
  <line x1="88" x2="225" y1="332" y2="332" class="net_17"/>
  <line x1="88" x2="185" y1="160" y2="160" class="net_10"/>
  <line x1="185" x2="185" y1="160" y2="372" class="net_10"/>
  <line x1="185" x2="225" y1="372" y2="372" class="net_10"/>
  <line x1="88" x2="165" y1="352" y2="352" class="net_18"/>
  <line x1="165" x2="165" y1="352" y2="392" class="net_18"/>
  <line x1="165" x2="225" y1="392" y2="392" class="net_18"/>
  <line x1="88" x2="175" y1="180" y2="180" class="net_11"/>
  <line x1="175" x2="175" y1="180" y2="432" class="net_11"/>
  <line x1="175" x2="225" y1="432" y2="432" class="net_11"/>
  <line x1="88" x2="145" y1="372" y2="372" class="net_19"/>
  <line x1="145" x2="145" y1="372" y2="452" class="net_19"/>
  <line x1="145" x2="225" y1="452" y2="452" class="net_19"/>
  <line x1="88" x2="155" y1="200" y2="200" class="net_12"/>
  <line x1="155" x2="155" y1="200" y2="492" class="net_12"/>
  <line x1="155" x2="225" y1="492" y2="492" class="net_12"/>
  <line x1="88" x2="125" y1="392" y2="392" class="net_20"/>
  <line x1="125" x2="125" y1="392" y2="512" class="net_20"/>
  <line x1="125" x2="225" y1="512" y2="512" class="net_20"/>
  <line x1="88" x2="135" y1="220" y2="220" class="net_13"/>
  <line x1="135" x2="135" y1="220" y2="552" class="net_13"/>
  <line x1="135" x2="225" y1="552" y2="552" class="net_13"/>
  <line x1="88" x2="115" y1="412" y2="412" class="net_21"/>
  <line x1="115" x2="115" y1="412" y2="572" class="net_21"/>
  <line x1="115" x2="225" y1="572" y2="572" class="net_21"/>
  <line x1="87.5" x2="87.5" y1="240.5" y2="259.5" class="net_14"/>
  <line x1="87.5" x2="105" y1="259.5" y2="259.5" class="net_14"/>
  <line x1="105" x2="105" y1="259.5" y2="612" class="net_14"/>
  <line x1="105" x2="225" y1="612" y2="612" class="net_14"/>
  <line x1="87.5" x2="87.5" y1="432.5" y2="632" class="net_22"/>
  <line x1="87.5" x2="225" y1="632" y2="632" class="net_22"/>
  <line x1="291" x2="328" y1="332" y2="332" class="net_23,24,25,26,27,28,29,30"/>
  <line x1="245" x2="285.5" y1="65" y2="65" class="net_23"/>
  <line x1="285.5" x2="285.5" y1="65" y2="321.5" class="net_23"/>
  <line x1="245" x2="265" y1="130" y2="130" class="net_24"/>
  <line x1="265" x2="265" y1="130" y2="342" class="net_24"/>
  <line x1="265" x2="285" y1="342" y2="342" class="net_24"/>
  <line x1="245" x2="255" y1="322" y2="322" class="net_25"/>
  <line x1="255" x2="255" y1="322" y2="362" class="net_25"/>
  <line x1="255" x2="285" y1="362" y2="362" class="net_25"/>
  <line x1="245" x2="285" y1="382" y2="382" class="net_26"/>
  <line x1="245" x2="255" y1="442" y2="442" class="net_27"/>
  <line x1="255" x2="255" y1="442" y2="402" class="net_27"/>
  <line x1="255" x2="285" y1="402" y2="402" class="net_27"/>
  <line x1="245" x2="265" y1="502" y2="502" class="net_28"/>
  <line x1="265" x2="265" y1="502" y2="422" class="net_28"/>
  <line x1="265" x2="285" y1="422" y2="422" class="net_28"/>
  <line x1="245" x2="275" y1="562" y2="562" class="net_29"/>
  <line x1="275" x2="275" y1="562" y2="442" class="net_29"/>
  <line x1="275" x2="285" y1="442" y2="442" class="net_29"/>
  <line x1="245" x2="285.5" y1="622" y2="622" class="net_30"/>
  <line x1="285.5" x2="285.5" y1="622" y2="462.5" class="net_30"/>
  <line x1="40" x2="83" y1="110" y2="110" class="net_7,8,9,10,11,12,13,14"/>
  <line x1="40" x2="83" y1="302" y2="302" class="net_15,16,17,18,19,20,21,22"/>
  <line x1="40" x2="83.5" y1="45" y2="45" class="net_2,3,4,5,6"/>
  <line x1="83.5" x2="83.5" y1="45" y2="33" class="net_2,3,4,5,6"/>
</svg>
